<svg width="64" height="64" viewBox="0 0 64 64" fill="none" xmlns="http://www.w3.org/2000/svg">
<path fill-rule="evenodd" clip-rule="evenodd" d="M2.66663 7.56784C2.66663 6.26793 3.18302 5.02126 4.10219 4.10208C5.02137 3.1829 6.26805 2.66651 7.56796 2.66651H56.4266C57.0708 2.66546 57.7089 2.79148 58.3043 3.03735C58.8998 3.28323 59.4409 3.64414 59.8966 4.09941C60.3524 4.55468 60.7139 5.09537 60.9604 5.69054C61.2069 6.2857 61.3336 6.92364 61.3333 7.56784V56.4265C61.334 57.0708 61.2076 57.709 60.9615 58.3044C60.7153 58.8999 60.3542 59.4409 59.8987 59.8967C59.4432 60.3524 58.9023 60.7139 58.307 60.9603C57.7117 61.2068 57.0736 61.3335 56.4293 61.3332H7.56796C6.92408 61.3332 6.28652 61.2063 5.69168 60.9598C5.09685 60.7133 4.55642 60.3521 4.10125 59.8967C3.64609 59.4413 3.28511 58.9006 3.03895 58.3057C2.79279 57.7107 2.66628 57.0731 2.66663 56.4292V7.56784ZM25.888 25.0345H33.832V29.0238C34.9786 26.7305 37.912 24.6665 42.32 24.6665C50.7706 24.6665 52.7733 29.2345 52.7733 37.6158V53.1412H44.2213V39.5252C44.2213 34.7518 43.0746 32.0585 40.1626 32.0585C36.1226 32.0585 34.4426 34.9625 34.4426 39.5252V53.1412H25.888V25.0345ZM11.2213 52.7758H19.776V24.6665H11.2213V52.7758ZM21 15.4985C21.0161 16.231 20.8858 16.9593 20.6166 17.6407C20.3474 18.3221 19.9449 18.9429 19.4326 19.4666C18.9203 19.9903 18.3085 20.4064 17.6332 20.6905C16.9579 20.9746 16.2326 21.121 15.5 21.121C14.7673 21.121 14.0421 20.9746 13.3667 20.6905C12.6914 20.4064 12.0797 19.9903 11.5673 19.4666C11.055 18.9429 10.6525 18.3221 10.3833 17.6407C10.1142 16.9593 9.98383 16.231 9.99996 15.4985C10.0316 14.0608 10.625 12.6926 11.653 11.687C12.681 10.6814 14.0619 10.1183 15.5 10.1183C16.938 10.1183 18.3189 10.6814 19.3469 11.687C20.3749 12.6926 20.9683 14.0608 21 15.4985Z" fill="#C29742"/>
</svg>
