<svg width="48" height="48" viewBox="0 0 48 48" fill="none" xmlns="http://www.w3.org/2000/svg">
<path d="M24 31.1719C26.9772 31.1719 29.3906 28.7584 29.3906 25.7812C29.3906 22.8041 26.9772 20.3906 24 20.3906C21.0228 20.3906 18.6094 22.8041 18.6094 25.7812C18.6094 28.7584 21.0228 31.1719 24 31.1719Z" fill="#C29742"/>
<path d="M39.1406 15H34.0312C33.6 15 33.1969 14.8125 32.9062 14.4938C30.2438 11.5125 29.2406 10.5 28.1531 10.5H20.1375C19.0406 10.5 17.9625 11.5125 15.2906 14.5031C15.0094 14.8219 14.5969 15 14.175 15H13.7906V14.25C13.7906 13.8375 13.4531 13.5 13.0406 13.5H10.6031C10.1906 13.5 9.85312 13.8375 9.85312 14.25V15H9.15C7.49062 15 6 16.2375 6 17.8781V34.3781C6 36.0188 7.49062 37.5 9.14062 37.5H39.1406C40.7906 37.5 42 36.0188 42 34.3781V17.8781C42 16.2375 40.7906 15 39.1406 15ZM24.375 33.7875C19.6594 34.0031 15.7781 30.1219 15.9938 25.4062C16.1813 21.2906 19.5094 17.9625 23.625 17.775C28.3406 17.5594 32.2219 21.4406 32.0062 26.1562C31.8187 30.2719 28.4906 33.6 24.375 33.7875ZM33 20.4375C32.325 20.4375 31.7812 19.8937 31.7812 19.2188C31.7812 18.5438 32.325 18 33 18C33.675 18 34.2188 18.5438 34.2188 19.2188C34.2188 19.8937 33.675 20.4375 33 20.4375Z" fill="#C29742"/>
</svg>
