<svg width="48" height="64" viewBox="0 0 48 64" fill="none" xmlns="http://www.w3.org/2000/svg">
<path d="M11.9976 64C18.6202 64 23.9952 59.2214 23.9952 53.3334V42.6667H11.9976C5.37491 42.6667 0 47.4454 0 53.3334C0 59.2214 5.37491 64 11.9976 64Z" fill="#0ACF83"/>
<path d="M0 32.0001C0 26.1121 5.37491 21.3334 11.9976 21.3334H23.9952V42.6668H11.9976C5.37491 42.6668 0 37.8881 0 32.0001Z" fill="#A259FF"/>
<path d="M0 10.6667C0 4.77873 5.37491 6.10352e-05 11.9976 6.10352e-05H23.9952V21.3334H11.9976C5.37491 21.3334 0 16.5547 0 10.6667Z" fill="#F24E1E"/>
<path d="M23.9882 6.10352e-05H35.9858C42.6085 6.10352e-05 47.9834 4.77873 47.9834 10.6667C47.9834 16.5547 42.6085 21.3334 35.9858 21.3334H23.9882V6.10352e-05Z" fill="#FF7262"/>
<path d="M47.9834 32.0001C47.9834 37.8881 42.6085 42.6668 35.9858 42.6668C29.3631 42.6668 23.9882 37.8881 23.9882 32.0001C23.9882 26.1121 29.3631 21.3334 35.9858 21.3334C42.6085 21.3334 47.9834 26.1121 47.9834 32.0001Z" fill="#1ABCFE"/>
</svg>
