<svg width="65" height="64" viewBox="0 0 65 64" fill="none" xmlns="http://www.w3.org/2000/svg">
<path d="M12.3167 5.1585e-06H53.6501C55.1388 -0.00143394 56.6131 0.298246 57.9888 0.881893C59.3645 1.46554 60.6144 2.3217 61.6671 3.40137C62.7197 4.48103 63.5545 5.76302 64.1236 7.17395C64.6926 8.58488 64.9848 10.0971 64.9834 11.6239V52.3761C64.9848 53.903 64.6926 55.4151 64.1236 56.8261C63.5545 58.237 62.7197 59.519 61.6671 60.5986C60.6144 61.6783 59.3645 62.5345 57.9888 63.1181C56.6131 63.7018 55.1388 64.0014 53.6501 64H12.3167C10.828 64.0014 9.35365 63.7018 7.978 63.1181C6.60234 62.5345 5.35241 61.6783 4.29973 60.5986C3.24705 59.519 2.4123 58.237 1.84324 56.8261C1.27419 55.4151 0.982 53.903 0.983403 52.3761V11.6239C0.982 10.0971 1.27419 8.58488 1.84324 7.17395C2.4123 5.76302 3.24705 4.48103 4.29973 3.40137C5.35241 2.3217 6.60234 1.46554 7.978 0.881893C9.35365 0.298246 10.828 -0.00143394 12.3167 5.1585e-06Z" fill="#330000"/>
<path d="M31.9967 38.4001H22.0767L20.0501 44.8274C20.0274 44.9446 19.9629 45.0488 19.8691 45.1196C19.7754 45.1905 19.6592 45.2228 19.5434 45.2103H14.5301C14.2367 45.2103 14.1567 45.0462 14.2367 44.718L22.8234 19.3642C22.9034 19.0907 22.9834 18.7898 23.0901 18.4616C23.1974 17.8754 23.251 17.2802 23.2501 16.6838C23.2421 16.6153 23.2596 16.5463 23.2992 16.4905C23.3387 16.4347 23.3974 16.3963 23.4634 16.383H30.3701C30.5834 16.383 30.6901 16.465 30.7167 16.6018L40.4501 44.7727C40.5301 45.0736 40.4501 45.2103 40.1834 45.2103H34.6101C34.5158 45.2196 34.4214 45.1946 34.3433 45.1395C34.2653 45.0845 34.2087 45.0031 34.1834 44.9095L31.9967 38.4001ZM23.6234 32.8479H30.3967C30.2367 32.2736 30.0234 31.5898 29.7834 30.8787C29.5434 30.1676 29.3034 29.3471 29.0634 28.5266C28.8234 27.706 28.5567 26.8582 28.2901 26.0103C28.0234 25.1625 27.7834 24.3693 27.5701 23.5761C27.3567 22.783 27.1701 22.0992 26.9834 21.4428H26.9301C26.6904 22.6348 26.3877 23.8127 26.0234 24.971C25.6234 26.2838 25.2234 27.6513 24.7967 29.0189C24.4234 30.4137 24.0234 31.6992 23.6234 32.8479ZM46.2634 21.0599C45.8257 21.0697 45.3904 20.9901 44.983 20.8258C44.5755 20.6615 44.204 20.4156 43.8901 20.1026C43.2791 19.4175 42.9537 18.5144 42.9834 17.5864C42.9677 17.1342 43.045 16.6838 43.2104 16.2643C43.3758 15.8449 43.6256 15.466 43.9434 15.1522C44.5844 14.5308 45.4348 14.1878 46.3167 14.1949C47.3567 14.1949 48.1567 14.5231 48.7434 15.1522C49.3342 15.8154 49.6498 16.6885 49.6234 17.5864C49.6397 18.0485 49.5655 18.5092 49.4051 18.9414C49.2448 19.3736 49.0017 19.7685 48.6901 20.1026C48.3759 20.4309 47.9966 20.6862 47.578 20.8513C47.1594 21.0165 46.7111 21.0876 46.2634 21.0599ZM43.2767 44.8001V23.7402C43.2767 23.4667 43.3834 23.3573 43.6234 23.3573H48.9034C49.1434 23.3573 49.2501 23.4941 49.2501 23.7402V44.8001C49.2501 45.1009 49.1434 45.2377 48.9034 45.2377H43.6767C43.6207 45.2424 43.5643 45.2341 43.5119 45.2134C43.4594 45.1926 43.4122 45.16 43.3737 45.1179C43.3352 45.0759 43.3065 45.0254 43.2897 44.9704C43.273 44.9153 43.2685 44.8571 43.2767 44.8001Z" fill="#FF9A00"/>
</svg>
