<svg width="65" height="64" viewBox="0 0 65 64" fill="none" xmlns="http://www.w3.org/2000/svg">
<path d="M12.3167 0.0131226H53.6501C59.9167 0.0131226 64.9834 5.20864 64.9834 11.6347V52.3784C64.9834 58.8045 59.9167 64 53.6501 64H12.3167C6.05007 64 0.983398 58.8045 0.983398 52.3784V11.6347C0.983398 5.20864 6.05007 0.0131226 12.3167 0.0131226Z" fill="#001E36"/>
<path d="M15.3834 44.8861V16.7482C15.3834 16.5568 15.4634 16.4475 15.6501 16.4475C16.1034 16.4475 16.5301 16.4475 17.1434 16.4201C17.7834 16.3928 18.4501 16.3928 19.1701 16.3654C19.8901 16.3381 20.6634 16.3381 21.4901 16.3107C22.3168 16.2834 23.1168 16.2834 23.9168 16.2834C26.1034 16.2834 27.9168 16.5568 29.4101 17.1311C30.7434 17.5959 31.9701 18.3616 32.9834 19.3734C33.8368 20.2484 34.5034 21.3148 34.9301 22.4907C35.3301 23.6391 35.5434 24.815 35.5434 26.0455C35.5434 28.3971 35.0101 30.3386 33.9434 31.8699C32.8768 33.4012 31.3834 34.5497 29.6501 35.206C27.8368 35.8896 25.8368 36.1357 23.6501 36.1357C23.0101 36.1357 22.5834 36.1357 22.3168 36.1084C22.0501 36.081 21.6768 36.081 21.1701 36.081V44.8587C21.1968 45.0501 21.0634 45.2142 20.8768 45.2415H15.7034C15.4901 45.2415 15.3834 45.1322 15.3834 44.8861ZM21.1968 21.725V30.9129C21.5701 30.9402 21.9168 30.9676 22.2368 30.9676H23.6501C24.6901 30.9676 25.7301 30.8035 26.7168 30.4753C27.5701 30.2292 28.3168 29.7097 28.9034 29.0261C29.4634 28.3425 29.7301 27.4127 29.7301 26.2096C29.7568 25.3619 29.5434 24.5142 29.1168 23.7759C28.6634 23.0649 28.0234 22.518 27.2501 22.2172C26.2634 21.807 25.1968 21.643 24.1034 21.6703C23.4101 21.6703 22.7968 21.6703 22.2901 21.6977C21.7568 21.6703 21.3834 21.6977 21.1968 21.725ZM52.1834 29.2448C51.3834 28.8073 50.5301 28.5065 49.6234 28.3151C48.6368 28.0963 47.6501 27.9596 46.6368 27.9596C46.1034 27.9323 45.5434 28.0143 45.0368 28.151C44.6901 28.2331 44.3968 28.4245 44.2101 28.6979C44.0768 28.9167 43.9968 29.1901 43.9968 29.4362C43.9968 29.6823 44.1034 29.9285 44.2634 30.1472C44.5034 30.448 44.8234 30.6941 45.1701 30.8855C45.7834 31.2137 46.4234 31.5145 47.0634 31.7879C48.5034 32.2801 49.8901 32.9637 51.1701 33.7841C52.0501 34.3583 52.7701 35.124 53.2768 36.0537C53.7034 36.9287 53.9168 37.8858 53.8901 38.8702C53.9168 40.1554 53.5434 41.4406 52.8501 42.5071C52.1034 43.6009 51.0634 44.4486 49.8634 44.9408C48.5568 45.515 46.9568 45.8158 45.0368 45.8158C43.8101 45.8158 42.6101 45.7064 41.4101 45.4603C40.4768 45.2962 39.5434 44.9954 38.6901 44.5853C38.5034 44.4759 38.3701 44.2845 38.3968 44.0657V39.3077C38.3968 39.2257 38.4234 39.1163 38.5034 39.0616C38.5834 39.0069 38.6634 39.0343 38.7434 39.089C39.7834 39.7179 40.8768 40.1554 42.0501 40.4289C43.0634 40.7023 44.1301 40.839 45.1968 40.839C46.2101 40.839 46.9301 40.7023 47.4101 40.4562C47.8368 40.2648 48.1301 39.7999 48.1301 39.3077C48.1301 38.9249 47.9168 38.5694 47.4901 38.2139C47.0634 37.8584 46.1834 37.4483 44.8768 36.9287C43.5168 36.4365 42.2634 35.7802 41.0901 34.9599C40.2634 34.3583 39.5701 33.5653 39.0634 32.6356C38.6368 31.7606 38.4234 30.8035 38.4501 29.8464C38.4501 28.6706 38.7701 27.5495 39.3568 26.5377C40.0234 25.4439 41.0101 24.5689 42.1568 24.022C43.4101 23.3657 44.9834 23.0649 46.8768 23.0649C47.9701 23.0649 49.0901 23.1469 50.1834 23.311C50.9834 23.4204 51.7568 23.6391 52.4768 23.9399C52.5834 23.9673 52.6901 24.0767 52.7434 24.186C52.7701 24.2954 52.7968 24.4048 52.7968 24.5142V28.9714C52.7968 29.0808 52.7434 29.1901 52.6634 29.2448C52.4234 29.2995 52.2901 29.2995 52.1834 29.2448Z" fill="#31A8FF"/>
</svg>
