<svg width="24" height="24" viewBox="0 0 24 24" fill="none" xmlns="http://www.w3.org/2000/svg">
<g clip-path="url(#clip0_19_121)">
<path d="M12.0053 6.60937C8.5982 6.60937 5.84999 9.01406 5.84999 11.9953C5.84999 14.9766 8.5982 17.3812 12.0053 17.3812C15.4125 17.3812 18.1607 14.9766 18.1607 11.9953C18.1607 9.01406 15.4125 6.60937 12.0053 6.60937ZM12.0053 15.4969C9.80356 15.4969 8.00356 13.9266 8.00356 11.9953C8.00356 10.0641 9.7982 8.49374 12.0053 8.49374C14.2125 8.49374 16.0071 10.0641 16.0071 11.9953C16.0071 13.9266 14.2071 15.4969 12.0053 15.4969ZM19.8482 6.38906C19.8482 7.08749 19.2053 7.64531 18.4125 7.64531C17.6143 7.64531 16.9768 7.08281 16.9768 6.38906C16.9768 5.69531 17.6196 5.13281 18.4125 5.13281C19.2053 5.13281 19.8482 5.69531 19.8482 6.38906ZM23.925 7.66406C23.8339 5.98124 23.3946 4.49062 21.9857 3.26249C20.5821 2.03437 18.8786 1.64999 16.9553 1.56562C14.9732 1.46718 9.03213 1.46718 7.04999 1.56562C5.13213 1.64531 3.42856 2.02968 2.01963 3.25781C0.610704 4.48593 0.176775 5.97656 0.0803467 7.65937C-0.0321533 9.39374 -0.0321533 14.5922 0.0803467 16.3266C0.171418 18.0094 0.610704 19.5 2.01963 20.7281C3.42856 21.9562 5.12678 22.3406 7.04999 22.425C9.03213 22.5234 14.9732 22.5234 16.9553 22.425C18.8786 22.3453 20.5821 21.9609 21.9857 20.7281C23.3893 19.5 23.8286 18.0094 23.925 16.3266C24.0375 14.5922 24.0375 9.39843 23.925 7.66406ZM21.3643 18.1875C20.9464 19.1062 20.1375 19.8141 19.0821 20.1844C17.5018 20.7328 13.7518 20.6062 12.0053 20.6062C10.2589 20.6062 6.50356 20.7281 4.92856 20.1844C3.87856 19.8187 3.06963 19.1109 2.64642 18.1875C2.01963 16.8047 2.16428 13.5234 2.16428 11.9953C2.16428 10.4672 2.02499 7.18124 2.64642 5.80312C3.06428 4.88437 3.8732 4.17656 4.92856 3.80624C6.50892 3.25781 10.2589 3.38437 12.0053 3.38437C13.7518 3.38437 17.5071 3.26249 19.0821 3.80624C20.1321 4.17187 20.9411 4.87968 21.3643 5.80312C21.9911 7.18593 21.8464 10.4672 21.8464 11.9953C21.8464 13.5234 21.9911 16.8094 21.3643 18.1875Z" fill="#C29742"/>
</g>
<defs>
<clipPath id="clip0_19_121">
<rect width="24" height="24" fill="white"/>
</clipPath>
</defs>
</svg>
