<svg width="24" height="24" viewBox="0 0 24 24" fill="none" xmlns="http://www.w3.org/2000/svg">
<path d="M5.44903 16.1024L5.4846 16.2971L6.29956 20.7529C6.36036 21.084 6.58156 21.3615 6.88943 21.4954C7.1973 21.6286 7.55239 21.6001 7.83439 21.4184C8.9695 20.6862 10.4519 19.7148 10.4118 19.6578L5.44903 16.1024ZM2.5456 9.77685C2.10254 9.94696 1.78821 10.3454 1.72547 10.8156C1.66338 11.2865 1.86323 11.7528 2.24678 12.0316L6.44573 15.087L21.36 3.35359L8.17266 16.345L13.9129 20.522C14.2783 20.7878 14.7492 20.8673 15.1832 20.7354C15.6166 20.6034 15.9619 20.2749 16.1172 19.8506L22.2578 3.04378C22.3199 2.87302 22.2765 2.68222 22.1472 2.5548C22.0178 2.42738 21.827 2.38728 21.6569 2.45262L2.5456 9.77685Z" fill="#C29742"/>
</svg>
