<svg width="64" height="64" viewBox="0 0 64 64" fill="none" xmlns="http://www.w3.org/2000/svg">
<path d="M53.3334 47.9998H48V24.6665L32 34.6665L16 24.6665V47.9998H10.6667V15.9998H13.8667L32 27.3332L50.1334 15.9998H53.3334M53.3334 10.6665H10.6667C7.70671 10.6665 5.33337 13.0398 5.33337 15.9998V47.9998C5.33337 49.4143 5.89528 50.7709 6.89547 51.7711C7.89566 52.7713 9.25222 53.3332 10.6667 53.3332H53.3334C54.7479 53.3332 56.1044 52.7713 57.1046 51.7711C58.1048 50.7709 58.6667 49.4143 58.6667 47.9998V15.9998C58.6667 14.5853 58.1048 13.2288 57.1046 12.2286C56.1044 11.2284 54.7479 10.6665 53.3334 10.6665Z" fill="#C29742"/>
</svg>
