<svg width="64" height="64" viewBox="0 0 64 64" fill="none" xmlns="http://www.w3.org/2000/svg">
<path d="M58.6666 15.4667C56.6622 16.3363 54.5424 16.9112 52.3733 17.1734C54.6618 15.8063 56.3767 13.6555 57.2 11.1201C55.0495 12.4002 52.6953 13.3022 50.24 13.7867C48.5988 12.0069 46.4132 10.8222 44.0261 10.4183C41.639 10.0145 39.1854 10.4144 37.0501 11.5552C34.9147 12.6961 33.2185 14.5135 32.2273 16.7223C31.2361 18.9311 31.0061 21.4064 31.5733 23.7601C27.2251 23.5401 22.9718 22.4079 19.0897 20.437C15.2076 18.4661 11.7836 15.7006 9.03998 12.3201C8.07768 14.0005 7.57203 15.9036 7.57331 17.8401C7.5699 19.6384 8.01123 21.4097 8.85799 22.9962C9.70476 24.5828 10.9307 25.9353 12.4266 26.9334C10.6879 26.8861 8.98634 26.4195 7.46665 25.5734V25.7067C7.47968 28.2264 8.36263 30.6643 9.96615 32.608C11.5697 34.5516 13.7953 35.8818 16.2666 36.3734C15.3153 36.6629 14.3276 36.8156 13.3333 36.8267C12.645 36.8187 11.9584 36.7563 11.28 36.6401C11.9837 38.8076 13.3456 40.7018 15.1762 42.0592C17.0067 43.4165 19.2148 44.1695 21.4933 44.2134C17.6459 47.2408 12.8957 48.893 7.99998 48.9067C7.10861 48.9097 6.21794 48.8562 5.33331 48.7467C10.3318 51.9741 16.1568 53.6873 22.1066 53.6801C26.2125 53.7227 30.2857 52.9468 34.0883 51.3976C37.8909 49.8484 41.3467 47.5571 44.2539 44.6574C47.161 41.7577 49.4612 38.3078 51.0201 34.5092C52.579 30.7105 53.3654 26.6393 53.3333 22.5334V21.1201C55.4258 19.5596 57.2306 17.6465 58.6666 15.4667Z" fill="#C29742"/>
</svg>
