<svg width="48" height="48" viewBox="0 0 48 48" fill="none" xmlns="http://www.w3.org/2000/svg">
<path d="M39.2438 2.4C38.9344 2.4 38.6344 2.48438 38.3719 2.65313L30.2625 7.77187C30.0281 7.92187 29.8875 8.175 29.8875 8.44688V15.5719C29.8875 15.8438 30.0281 16.0969 30.2625 16.2469L38.3719 21.3656C38.6344 21.525 38.9344 21.6188 39.2438 21.6188H41.1937C41.6437 21.6188 42 21.2625 42 20.8219V3.19688C42 2.75625 41.6344 2.4 41.1937 2.4H39.2438ZM22.6406 24H4.82812C2.175 24 0 21.825 0 19.1813V4.81875C0 2.16562 2.175 0 4.81875 0H22.6312C25.2844 0 27.45 2.175 27.45 4.81875V19.1719C27.4594 21.825 25.2937 24 22.6406 24Z" fill="#C29742"/>
</svg>
