<svg width="65" height="64" viewBox="0 0 65 64" fill="none" xmlns="http://www.w3.org/2000/svg">
<path d="M59.0035 53.94L47.4715 59.492C46.8202 59.806 46.0874 59.9096 45.3746 59.7885C44.6619 59.6674 44.0044 59.3275 43.4935 58.816L5.74346 24.4C5.28544 23.9844 5.01127 23.4039 4.98126 22.7862C4.95126 22.1684 5.16787 21.5641 5.58346 21.106C5.63346 21.052 5.68346 21 5.73746 20.952L8.81946 18.152C9.22218 17.7855 9.74057 17.5716 10.2846 17.5475C10.8286 17.5234 11.3639 17.6906 11.7975 18.02L57.2675 52.5C57.6109 52.7606 58.0203 52.9202 58.4495 52.9608C58.8787 53.0014 59.3107 52.9213 59.6969 52.7297C60.0831 52.538 60.4082 52.2424 60.6355 51.876C60.8628 51.5097 60.9833 51.0872 60.9835 50.656V50.79C60.9834 51.4482 60.7976 52.093 60.4473 52.6503C60.097 53.2076 59.5966 53.6546 59.0035 53.94Z" fill="#0065A9"/>
<path d="M59.0035 10.06L47.4715 4.50602C46.82 4.1929 46.0874 4.08976 45.3749 4.21085C44.6623 4.33194 44.0049 4.67128 43.4935 5.18201L5.74346 39.6C5.28544 40.0156 5.01127 40.5961 4.98126 41.2139C4.95126 41.8316 5.16787 42.436 5.58346 42.894C5.63346 42.948 5.68346 43 5.73746 43.048L8.81946 45.848C9.22259 46.2161 9.74217 46.4309 10.2875 46.4551C10.8329 46.4792 11.3694 46.3111 11.8035 45.98L57.2675 11.5C57.6109 11.2394 58.0203 11.0798 58.4495 11.0392C58.8787 10.9987 59.3107 11.0787 59.6969 11.2704C60.0831 11.462 60.4082 11.7576 60.6355 12.124C60.8628 12.4904 60.9833 12.9129 60.9835 13.344V13.2C60.9813 12.5436 60.7945 11.901 60.4443 11.3457C60.0942 10.7904 59.5949 10.3449 59.0035 10.06Z" fill="#007ACC"/>
<path d="M47.4714 4.506C46.8199 4.19288 46.0873 4.08974 45.3748 4.21083C44.6622 4.33192 44.0048 4.67126 43.4934 5.182C43.7806 4.89853 44.145 4.70614 44.5411 4.62893C44.9372 4.55172 45.3473 4.59312 45.7199 4.74794C46.0926 4.90277 46.4112 5.16414 46.636 5.49929C46.8607 5.83444 46.9816 6.22847 46.9834 6.632V57.368C46.9837 57.7734 46.8637 58.1698 46.6385 58.507C46.4134 58.8442 46.0933 59.1069 45.7187 59.262C45.3441 59.417 44.9319 59.4574 44.5343 59.378C44.1367 59.2986 43.7717 59.103 43.4854 58.816C43.9964 59.3273 44.6537 59.6672 45.3664 59.7887C46.079 59.9101 46.8118 59.8072 47.4634 59.494L58.9934 53.95C59.5883 53.666 60.0909 53.2196 60.443 52.6622C60.7951 52.1048 60.9824 51.4593 60.9834 50.8V13.2C60.9835 12.5412 60.7975 11.8959 60.4469 11.3382C60.0962 10.7805 59.5951 10.3333 59.0014 10.048L47.4714 4.506Z" fill="#1F9CF0"/>
</svg>
