<svg width="65" height="64" viewBox="0 0 65 64" fill="none" xmlns="http://www.w3.org/2000/svg">
<path d="M40.1454 30.7L18.0074 26.8V55.618C18.0077 55.9311 18.0696 56.241 18.1897 56.5302C18.3097 56.8193 18.4856 57.082 18.7071 57.3031C18.9287 57.5243 19.1916 57.6997 19.481 57.8193C19.7703 57.9388 20.0804 58.0003 20.3934 58H58.5934C58.9069 58.0008 59.2173 57.9398 59.5071 57.8204C59.7969 57.7011 60.0604 57.5258 60.2824 57.3046C60.5043 57.0833 60.6805 56.8205 60.8008 56.5311C60.9211 56.2417 60.9832 55.9314 60.9834 55.618V45L40.1454 30.7Z" fill="#185C37"/>
<path d="M40.1454 6H20.3934C20.0804 5.99974 19.7703 6.06114 19.481 6.18071C19.1916 6.30027 18.9287 6.47565 18.7071 6.69684C18.4856 6.91803 18.3097 7.1807 18.1897 7.46984C18.0696 7.75898 18.0077 8.06893 18.0074 8.382V19L40.1454 32L51.8674 35.9L60.9834 32V19L40.1454 6Z" fill="#21A366"/>
<path d="M18.0074 19H40.1454V32H18.0074V19Z" fill="#107C41"/>
<path opacity="0.1" d="M33.8514 16.4H18.0074V48.9H33.8514C34.4828 48.8969 35.0874 48.6451 35.5344 48.1992C35.9814 47.7534 36.2347 47.1493 36.2394 46.518V18.782C36.2347 18.1507 35.9814 17.5467 35.5344 17.1008C35.0874 16.6549 34.4828 16.4032 33.8514 16.4Z" fill="black"/>
<path opacity="0.2" d="M32.5494 17.7H18.0074V50.2H32.5494C33.1808 50.1969 33.7854 49.9451 34.2324 49.4992C34.6794 49.0534 34.9327 48.4493 34.9374 47.818V20.082C34.9327 19.4507 34.6794 18.8467 34.2324 18.4008C33.7854 17.9549 33.1808 17.7032 32.5494 17.7Z" fill="black"/>
<path opacity="0.2" d="M32.5494 17.7H18.0074V47.6H32.5494C33.1808 47.5969 33.7854 47.3451 34.2324 46.8992C34.6794 46.4534 34.9327 45.8493 34.9374 45.218V20.082C34.9327 19.4507 34.6794 18.8467 34.2324 18.4008C33.7854 17.9549 33.1808 17.7032 32.5494 17.7Z" fill="black"/>
<path opacity="0.2" d="M31.2474 17.7H18.0074V47.6H31.2474C31.8788 47.5969 32.4834 47.3451 32.9304 46.8992C33.3774 46.4534 33.6307 45.8493 33.6354 45.218V20.082C33.6307 19.4507 33.3774 18.8467 32.9304 18.4008C32.4834 17.9549 31.8788 17.7032 31.2474 17.7Z" fill="black"/>
<path d="M7.3714 17.7H31.2474C31.8799 17.6995 32.4867 17.9501 32.9344 18.3967C33.3822 18.8434 33.6343 19.4496 33.6354 20.082V43.918C33.6343 44.5505 33.3822 45.1566 32.9344 45.6033C32.4867 46.0499 31.8799 46.3005 31.2474 46.3H7.3714C7.05816 46.3005 6.74789 46.2393 6.45831 46.1199C6.16874 46.0004 5.90555 45.8251 5.68378 45.6039C5.462 45.3827 5.286 45.1199 5.16583 44.8306C5.04565 44.5414 4.98366 44.2313 4.9834 43.918V20.082C4.98366 19.7688 5.04565 19.4587 5.16583 19.1694C5.286 18.8801 5.462 18.6174 5.68378 18.3962C5.90555 18.1749 6.16874 17.9996 6.45831 17.8801C6.74789 17.7607 7.05816 17.6995 7.3714 17.7Z" fill="url(#paint0_linear_19_141)"/>
<path d="M12.3834 39.746L17.4054 31.978L12.8054 24.254H16.4994L19.0094 29.2C19.2414 29.668 19.4094 30.016 19.4854 30.248H19.5194C19.6834 29.872 19.8574 29.51 20.0394 29.156L22.7234 24.262H26.1234L21.4054 31.942L26.2434 39.752H22.6254L19.7254 34.33C19.5908 34.0969 19.4764 33.8527 19.3834 33.6H19.3354C19.2509 33.8462 19.1381 34.0818 18.9994 34.302L16.0134 39.746H12.3834Z" fill="white"/>
<path d="M58.5954 6H40.1454V19H60.9834V8.382C60.9831 8.06876 60.9211 7.75865 60.801 7.46938C60.6808 7.18011 60.5048 6.91735 60.283 6.69614C60.0612 6.47492 59.798 6.29958 59.5085 6.18013C59.2189 6.06069 58.9086 5.99948 58.5954 6Z" fill="#33C481"/>
<path d="M40.1454 32H60.9834V45H40.1454V32Z" fill="#107C41"/>
<defs>
<linearGradient id="paint0_linear_19_141" x1="9.9714" y1="15.828" x2="28.6474" y2="48.172" gradientUnits="userSpaceOnUse">
<stop stop-color="#18884F"/>
<stop offset="0.5" stop-color="#117E43"/>
<stop offset="1" stop-color="#0B6631"/>
</linearGradient>
</defs>
</svg>
